<svg width="150" height="152" viewBox="0 0 150 152" fill="none" xmlns="http://www.w3.org/2000/svg">
<path d="M75 138.75C111.243 138.75 140.625 110.208 140.625 75C140.625 39.7918 111.243 11.25 75 11.25C38.7563 11.25 9.375 39.7918 9.375 75C9.375 110.208 38.7563 138.75 75 138.75Z" fill="#CCCCCC" fill-opacity="0.5"/>
<path d="M138.625 75C138.625 109.049 110.194 136.75 75 136.75C39.8058 136.75 11.375 109.049 11.375 75C11.375 40.9507 39.8058 13.25 75 13.25C110.194 13.25 138.625 40.9507 138.625 75Z" stroke="black" stroke-opacity="0.1" stroke-width="4" stroke-linecap="round" stroke-linejoin="round"/>
<g filter="url(#filter0_d_850_25)">
<path d="M93.3572 62.0149H92.9422L92.8657 62.4227C91.7588 68.3248 88.6604 73.1183 83.5427 76.8189C78.417 80.5252 71.7179 82.8091 63.4143 83.6411L62.2957 83.7532L63.1281 84.5088C71.3325 91.9563 82.6159 103.177 96.9818 118.177L96.9879 118.183L96.9942 118.19C97.2856 118.473 97.4085 118.723 97.4381 118.937C97.467 119.146 97.4167 119.393 97.2194 119.695L97.2061 119.716L97.1949 119.737C96.9075 120.288 96.3926 120.6 95.4977 120.6H81.1047C80.4334 120.6 79.9658 120.391 79.6347 120.015L79.626 120.005L79.6168 119.996C64.5566 104.613 52.2961 92.6408 42.8377 84.0821L42.8321 84.0771L42.8264 84.0722C42.4865 83.7827 42.3379 83.4573 42.3379 83.07V75.0868C42.3379 74.7082 42.4915 74.3698 42.8633 74.0531C43.2362 73.7355 43.6735 73.5753 44.1998 73.5753H52.4665C59.0011 73.5753 64.3081 72.6699 68.3581 70.8275C72.4192 68.98 75.0596 66.2646 76.1935 62.6651L76.3984 62.0149H75.7166H44.1998C43.6067 62.0149 43.1627 61.8549 42.8264 61.5685C42.4962 61.2873 42.3379 60.945 42.3379 60.5034V54.0917C42.3379 53.6501 42.4962 53.3078 42.8264 53.0266C43.1627 52.7402 43.6067 52.5802 44.1998 52.5802H74.6833H75.5606L75.1135 51.8254C72.1615 46.8415 65.309 44.4771 54.9022 44.4771H44.1998C43.6735 44.4771 43.2362 44.3169 42.8633 43.9993C42.4915 43.6826 42.3379 43.3442 42.3379 42.9656V34.6053C42.3379 34.1636 42.4962 33.8214 42.8264 33.5401C43.1627 33.2537 43.6067 33.0938 44.1998 33.0938H105.61C106.203 33.0938 106.647 33.2537 106.983 33.5401C107.313 33.8214 107.472 34.1636 107.472 34.6053V41.0169C107.472 41.4586 107.313 41.8008 106.983 42.082C106.647 42.3685 106.203 42.5284 105.61 42.5284H88.4119H87.2853L88.0411 43.3639C90.2955 45.8557 91.8319 48.7971 92.6496 52.1971L92.7417 52.5802H93.1357H105.757C106.35 52.5802 106.794 52.7402 107.131 53.0266C107.461 53.3078 107.619 53.6501 107.619 54.0917V60.5034C107.619 60.945 107.461 61.2873 107.131 61.5685C106.794 61.8549 106.35 62.0149 105.757 62.0149H93.3572Z" stroke="black" stroke-opacity="0.5" shape-rendering="crispEdges"/>
</g>
<path d="M150 75C150 116.421 116.421 150 75 150C33.5786 150 0 116.421 0 75C0 33.5786 33.5786 0 75 0C116.421 0 150 33.5786 150 75ZM12.4846 75C12.4846 109.526 40.4737 137.515 75 137.515C109.526 137.515 137.515 109.526 137.515 75C137.515 40.4737 109.526 12.4846 75 12.4846C40.4737 12.4846 12.4846 40.4737 12.4846 75Z" fill="#CCCCCC" fill-opacity="0.5"/>
<defs>
<filter id="filter0_d_850_25" x="31.8379" y="22.5938" width="106.281" height="128.508" filterUnits="userSpaceOnUse" color-interpolation-filters="sRGB">
<feFlood flood-opacity="0" result="BackgroundImageFix"/>
<feColorMatrix in="SourceAlpha" type="matrix" values="0 0 0 0 0 0 0 0 0 0 0 0 0 0 0 0 0 0 127 0" result="hardAlpha"/>
<feOffset dx="10" dy="10"/>
<feGaussianBlur stdDeviation="10"/>
<feComposite in2="hardAlpha" operator="out"/>
<feColorMatrix type="matrix" values="0 0 0 0 0 0 0 0 0 0 0 0 0 0 0 0 0 0 0.25 0"/>
<feBlend mode="normal" in2="BackgroundImageFix" result="effect1_dropShadow_850_25"/>
<feBlend mode="normal" in="SourceGraphic" in2="effect1_dropShadow_850_25" result="shape"/>
</filter>
</defs>
</svg>
