<svg width="103" height="111" viewBox="0 0 103 111" fill="none" xmlns="http://www.w3.org/2000/svg">
<path d="M50 92C74.3003 92 94 73.1958 94 50C94 26.804 74.3003 8 50 8C25.6995 8 6 26.804 6 50C6 73.1958 25.6995 92 50 92Z" fill="#CCCCCC" fill-opacity="0.5"/>
<path d="M92 50C92 72.0045 73.2845 90 50 90C26.7153 90 8 72.0045 8 50C8 27.9953 26.7153 10 50 10C73.2845 10 92 27.9953 92 50Z" stroke="black" stroke-opacity="0.1" stroke-width="4" stroke-linecap="round" stroke-linejoin="round"/>
<g filter="url(#filter0_d_850_24)">
<path d="M62.2378 41.174H61.8228L61.7464 41.5818C61.0167 45.4724 58.9762 48.6316 55.5972 51.0749C52.21 53.5241 47.7744 55.0397 42.2593 55.5923L41.1406 55.7044L41.9731 56.46C47.4383 61.421 54.9574 68.8983 64.5338 78.8974L64.5399 78.9038L64.5462 78.9099C64.7228 79.0818 64.7801 79.2163 64.7933 79.3115C64.8058 79.4017 64.7884 79.5264 64.673 79.7032L64.6597 79.7236L64.6485 79.7451C64.4924 80.0443 64.2153 80.2307 63.6648 80.2307H54.0695C53.6606 80.2307 53.398 80.1057 53.2146 79.8974L53.2058 79.8875L53.1966 79.8781C43.1555 69.6219 34.9792 61.6376 28.6699 55.9286L28.6644 55.9235L28.6586 55.9186C28.4664 55.7549 28.3916 55.5831 28.3916 55.3774V50.0553C28.3916 49.8582 28.4673 49.677 28.6833 49.493C28.9004 49.3081 29.1532 49.2143 29.4662 49.2143H34.9773C39.3469 49.2143 42.9111 48.6092 45.6408 47.3674C48.3815 46.1206 50.1812 44.2782 50.9543 41.8242L51.1592 41.174H50.4774H29.4662C29.1028 41.174 28.8474 41.0769 28.6586 40.9162C28.4761 40.7607 28.3916 40.579 28.3916 40.333V36.0585C28.3916 35.8125 28.4761 35.6309 28.6586 35.4754C28.8474 35.3146 29.1028 35.2175 29.4662 35.2175H49.7885H50.6658L50.2187 34.4627C48.2017 31.0573 43.5471 29.4821 36.6012 29.4821H29.4662C29.1532 29.4821 28.9004 29.3883 28.6833 29.2033C28.4673 29.0194 28.3916 28.8381 28.3916 28.6411V23.0676C28.3916 22.8215 28.4761 22.6399 28.6586 22.4844C28.8474 22.3237 29.1028 22.2266 29.4662 22.2266H70.4061C70.7695 22.2266 71.0249 22.3237 71.2136 22.4844C71.3962 22.6399 71.4807 22.8215 71.4807 23.0676V27.342C71.4807 27.5881 71.3962 27.7697 71.2136 27.9252C71.0249 28.0859 70.7695 28.183 70.4061 28.183H58.9409H57.8143L58.5702 29.0185C60.0537 30.6582 61.0652 32.5938 61.604 34.8345L61.6962 35.2175H62.0902H70.5045C70.8679 35.2175 71.1234 35.3146 71.3121 35.4754C71.4946 35.6309 71.5791 35.8125 71.5791 36.0585V40.333C71.5791 40.579 71.4946 40.7607 71.3121 40.9162C71.1234 41.0769 70.8679 41.174 70.5045 41.174H62.2378Z" stroke="black" stroke-opacity="0.5" shape-rendering="crispEdges"/>
</g>
<path d="M100 50C100 77.6142 77.6142 100 50 100C22.3858 100 0 77.6142 0 50C0 22.3858 22.3858 0 50 0C77.6142 0 100 22.3858 100 50ZM8.32309 50C8.32309 73.0175 26.9825 91.6769 50 91.6769C73.0175 91.6769 91.6769 73.0175 91.6769 50C91.6769 26.9825 73.0175 8.32309 50 8.32309C26.9825 8.32309 8.32309 26.9825 8.32309 50Z" fill="#CCCCCC" fill-opacity="0.5"/>
<defs>
<filter id="filter0_d_850_24" x="17.8916" y="11.7266" width="84.1875" height="99.0078" filterUnits="userSpaceOnUse" color-interpolation-filters="sRGB">
<feFlood flood-opacity="0" result="BackgroundImageFix"/>
<feColorMatrix in="SourceAlpha" type="matrix" values="0 0 0 0 0 0 0 0 0 0 0 0 0 0 0 0 0 0 127 0" result="hardAlpha"/>
<feOffset dx="10" dy="10"/>
<feGaussianBlur stdDeviation="10"/>
<feComposite in2="hardAlpha" operator="out"/>
<feColorMatrix type="matrix" values="0 0 0 0 0 0 0 0 0 0 0 0 0 0 0 0 0 0 0.25 0"/>
<feBlend mode="normal" in2="BackgroundImageFix" result="effect1_dropShadow_850_24"/>
<feBlend mode="normal" in="SourceGraphic" in2="effect1_dropShadow_850_24" result="shape"/>
</filter>
</defs>
</svg>
